<svg id="visual" viewBox="0 0 1920 250" width="1920" height="250" xmlns="http://www.w3.org/2000/svg" xmlns:xlink="http://www.w3.org/1999/xlink" version="1.1"><path d="M0 176L21.3 168.5C42.7 161 85.3 146 128 137C170.7 128 213.3 125 256 120.2C298.7 115.3 341.3 108.7 384 109.8C426.7 111 469.3 120 512 126.7C554.7 133.3 597.3 137.7 640 145.8C682.7 154 725.3 166 768 171.2C810.7 176.3 853.3 174.7 896 174.8C938.7 175 981.3 177 1024 176.2C1066.7 175.3 1109.3 171.7 1152 170.8C1194.7 170 1237.3 172 1280 170.3C1322.7 168.7 1365.3 163.3 1408 164.3C1450.7 165.3 1493.3 172.7 1536 174.3C1578.7 176 1621.3 172 1664 158.5C1706.7 145 1749.3 122 1792 114C1834.7 106 1877.3 113 1898.7 116.5L1920 120L1920 251L1898.7 251C1877.3 251 1834.7 251 1792 251C1749.3 251 1706.7 251 1664 251C1621.3 251 1578.7 251 1536 251C1493.3 251 1450.7 251 1408 251C1365.3 251 1322.7 251 1280 251C1237.3 251 1194.7 251 1152 251C1109.3 251 1066.7 251 1024 251C981.3 251 938.7 251 896 251C853.3 251 810.7 251 768 251C725.3 251 682.7 251 640 251C597.3 251 554.7 251 512 251C469.3 251 426.7 251 384 251C341.3 251 298.7 251 256 251C213.3 251 170.7 251 128 251C85.3 251 42.7 251 21.3 251L0 251Z" fill="#b2cf4a"></path><path d="M0 191L21.3 181.8C42.7 172.7 85.3 154.3 128 146.8C170.7 139.3 213.3 142.7 256 149.3C298.7 156 341.3 166 384 173.5C426.7 181 469.3 186 512 189.2C554.7 192.3 597.3 193.7 640 187.2C682.7 180.7 725.3 166.3 768 164.5C810.7 162.7 853.3 173.3 896 174.3C938.7 175.3 981.3 166.7 1024 161.7C1066.7 156.7 1109.3 155.3 1152 152.7C1194.7 150 1237.3 146 1280 147.3C1322.7 148.7 1365.3 155.3 1408 163.8C1450.7 172.3 1493.3 182.7 1536 184.5C1578.7 186.3 1621.3 179.7 1664 180.7C1706.7 181.7 1749.3 190.3 1792 188C1834.7 185.7 1877.3 172.3 1898.7 165.7L1920 159L1920 251L1898.7 251C1877.3 251 1834.7 251 1792 251C1749.3 251 1706.7 251 1664 251C1621.3 251 1578.7 251 1536 251C1493.3 251 1450.7 251 1408 251C1365.3 251 1322.7 251 1280 251C1237.3 251 1194.7 251 1152 251C1109.3 251 1066.7 251 1024 251C981.3 251 938.7 251 896 251C853.3 251 810.7 251 768 251C725.3 251 682.7 251 640 251C597.3 251 554.7 251 512 251C469.3 251 426.7 251 384 251C341.3 251 298.7 251 256 251C213.3 251 170.7 251 128 251C85.3 251 42.7 251 21.3 251L0 251Z" fill="#789f32"></path><path d="M0 210L21.3 207.3C42.7 204.7 85.3 199.3 128 191.8C170.7 184.3 213.3 174.7 256 173C298.7 171.3 341.3 177.7 384 180.2C426.7 182.7 469.3 181.3 512 186.8C554.7 192.3 597.3 204.7 640 206.7C682.7 208.7 725.3 200.3 768 192.3C810.7 184.3 853.3 176.7 896 173.7C938.7 170.7 981.3 172.3 1024 178.5C1066.7 184.7 1109.3 195.3 1152 198.3C1194.7 201.3 1237.3 196.7 1280 188.7C1322.7 180.7 1365.3 169.3 1408 164.2C1450.7 159 1493.3 160 1536 164.5C1578.7 169 1621.3 177 1664 180.5C1706.7 184 1749.3 183 1792 180.5C1834.7 178 1877.3 174 1898.7 172L1920 170L1920 251L1898.7 251C1877.3 251 1834.7 251 1792 251C1749.3 251 1706.7 251 1664 251C1621.3 251 1578.7 251 1536 251C1493.3 251 1450.7 251 1408 251C1365.3 251 1322.7 251 1280 251C1237.3 251 1194.7 251 1152 251C1109.3 251 1066.7 251 1024 251C981.3 251 938.7 251 896 251C853.3 251 810.7 251 768 251C725.3 251 682.7 251 640 251C597.3 251 554.7 251 512 251C469.3 251 426.7 251 384 251C341.3 251 298.7 251 256 251C213.3 251 170.7 251 128 251C85.3 251 42.7 251 21.3 251L0 251Z" fill="#45701c"></path><path d="M0 236L21.3 228.3C42.7 220.7 85.3 205.3 128 205.7C170.7 206 213.3 222 256 224C298.7 226 341.3 214 384 214C426.7 214 469.3 226 512 229.3C554.7 232.7 597.3 227.3 640 220.3C682.7 213.3 725.3 204.7 768 200.5C810.7 196.3 853.3 196.7 896 199C938.7 201.3 981.3 205.7 1024 211.2C1066.7 216.7 1109.3 223.3 1152 224.5C1194.7 225.7 1237.3 221.3 1280 216.5C1322.7 211.7 1365.3 206.3 1408 203.3C1450.7 200.3 1493.3 199.7 1536 199.8C1578.7 200 1621.3 201 1664 204.2C1706.7 207.3 1749.3 212.7 1792 212.7C1834.7 212.7 1877.3 207.3 1898.7 204.7L1920 202L1920 251L1898.7 251C1877.3 251 1834.7 251 1792 251C1749.3 251 1706.7 251 1664 251C1621.3 251 1578.7 251 1536 251C1493.3 251 1450.7 251 1408 251C1365.3 251 1322.7 251 1280 251C1237.3 251 1194.7 251 1152 251C1109.3 251 1066.7 251 1024 251C981.3 251 938.7 251 896 251C853.3 251 810.7 251 768 251C725.3 251 682.7 251 640 251C597.3 251 554.7 251 512 251C469.3 251 426.7 251 384 251C341.3 251 298.7 251 256 251C213.3 251 170.7 251 128 251C85.3 251 42.7 251 21.3 251L0 251Z" fill="#174305"></path></svg>