<svg width="100%" height="100%" id="svg" viewBox="0 0 1440 390" xmlns="http://www.w3.org/2000/svg"><path d="M 0,400 L 0,60 C 62.3868787766679,55.116241213466516 124.7737575533358,50.23248242693303 171,54 C 217.2262424466642,57.76751757306697 247.29184856332466,70.18631150573438 300,70 C 352.70815143667534,69.81368849426562 428.0588481933654,57.02227155012948 489,57 C 549.9411518066346,56.97772844987052 596.4727586632138,69.72460229374768 650,74 C 703.5272413367862,78.27539770625232 764.0501171537795,74.07931927487975 820,73 C 875.9498828462205,71.92068072512025 927.3267727216676,73.95812060673327 978,70 C 1028.6732272783324,66.04187939326673 1078.642791959551,56.0881982981872 1129,52 C 1179.357208040449,47.9118017018128 1230.1020594401282,49.68908620051795 1282,52 C 1333.8979405598718,54.31091379948205 1386.948970279936,57.155456899741026 1440,60 L 1440,400 L 0,400 Z" stroke="none" stroke-width="0" fill="#174305" fill-opacity="0.265" class="transition-all duration-300 ease-in-out delay-150 path-0" transform="rotate(-180 720 200)"></path><path d="M 0,400 L 0,140 C 53.246269577013194,143.97168578123075 106.49253915402639,147.94337156246146 154,148 C 201.5074608459736,148.05662843753854 243.27611296090765,144.19819953138486 301,144 C 358.72388703909235,143.80180046861514 432.4030090023431,147.26383031199904 485,152 C 537.5969909976569,156.73616968800096 569.1118510297201,162.74647922061905 618,162 C 666.8881489702799,161.25352077938095 733.1495868787767,153.75025280552475 797,153 C 860.8504131212233,152.24974719447525 922.2898014551733,158.252509557282 969,152 C 1015.7101985448267,145.747490442718 1047.69120730053,127.23970896534715 1094,119 C 1140.30879269947,110.76029103465285 1200.9453693427056,112.78865458132938 1261,118 C 1321.0546306572944,123.21134541867062 1380.527315328647,131.6056727093353 1440,140 L 1440,400 L 0,400 Z" stroke="none" stroke-width="0" fill="#174305" fill-opacity="0.4" transform="rotate(-180 720 200)"></path><path d="M 0,400 L 0,220 C 67.29993834011592,216.09702799358737 134.59987668023183,212.19405598717475 177,210 C 219.40012331976817,207.80594401282525 236.90043161918857,207.3208040448884 291,205 C 345.09956838081143,202.6791959551116 435.79839684301396,198.5227278332717 503,201 C 570.201603156986,203.4772721667283 613.9059810087557,212.5882846220249 652,219 C 690.0940189912443,225.4117153779751 722.5776791219632,229.12413367862868 772,227 C 821.4223208780368,224.87586632137132 887.7833025033913,216.91518066346035 949,209 C 1010.2166974966087,201.08481933653965 1066.2891108644717,193.2151436675299 1116,193 C 1165.7108891355283,192.7848563324701 1209.0602540387222,200.22424466642002 1262,206 C 1314.9397459612778,211.77575533357998 1377.469872980639,215.88787766679 1440,220 L 1440,400 L 0,400 Z" stroke="none" stroke-width="0" fill="#174305" fill-opacity="0.53" transform="rotate(-180 720 200)"></path><path d="M 0,400 L 0,300 C 64.49204587495375,288.1104945122703 128.9840917499075,276.22098902454064 177,270 C 225.0159082500925,263.77901097545936 256.5556788753238,263.2265384141078 301,274 C 345.4443211246762,284.7734615858922 402.79319274879765,306.87285731902824 468,321 C 533.2068072512023,335.12714268097176 606.2715501294857,341.28203230977925 666,329 C 725.7284498705143,316.71796769022075 772.1206067332595,285.99901344185474 822,282 C 871.8793932667405,278.00098655814526 925.2460229374767,300.72191392280183 977,310 C 1028.7539770625233,319.27808607719817 1078.8953015168331,315.113330866938 1129,316 C 1179.1046984831669,316.886669133062 1229.1727709951906,322.8247626094463 1281,321 C 1332.8272290048094,319.1752373905537 1386.4136145024047,309.5876186952769 1440,300 L 1440,400 L 0,400 Z" stroke="none" stroke-width="0" fill="#174305" fill-opacity="1" transform="rotate(-180 720 200)"></path></svg>